<svg xmlns="http://www.w3.org/2000/svg" xmlns:xlink="http://www.w3.org/1999/xlink" width="102" height="102" viewBox="0 0 102 102">
  <defs>
    <clipPath id="clip-path">
      <circle id="타원_11" data-name="타원 11" cx="51" cy="51" r="51" transform="translate(260.25 2213.25)" fill="#fff" stroke="#707070" stroke-width="1"/>
    </clipPath>
  </defs>
  <g id="마스크_그룹_10" data-name="마스크 그룹 10" transform="translate(-260.25 -2213.25)" clip-path="url(#clip-path)">
    <g id="그룹_39" data-name="그룹 39" transform="translate(153.664 2213.258)">
      <g id="그룹_34" data-name="그룹 34" transform="translate(43.56 0)">
        <path id="패스_32" data-name="패스 32" d="M822.69,431.437l-6.954-.018-29.5,25.634h6.956Z" transform="translate(-786.237 -355.453)" fill="#fff"/>
        <path id="패스_33" data-name="패스 33" d="M822.69,431.437l-6.954-.018-29.5,25.634h6.956Z" transform="translate(-750.786 -380.775)" fill="#fff"/>
        <path id="패스_34" data-name="패스 34" d="M822.69,431.437l-6.954-.018-29.5,25.634h6.956Z" transform="translate(-715.335 -406.097)" fill="#fff"/>
        <path id="패스_35" data-name="패스 35" d="M822.69,431.437l-6.954-.018-29.5,25.634h6.956Z" transform="translate(-679.884 -431.42)" fill="#fff"/>
      </g>
      <g id="그룹_35" data-name="그룹 35" transform="translate(0 0)">
        <path id="패스_36" data-name="패스 36" d="M822.69,431.437l-6.954-.018-29.5,25.634h6.956Z" transform="translate(-786.237 -355.453)" fill="#fff"/>
        <path id="패스_37" data-name="패스 37" d="M822.69,431.437l-6.954-.018-29.5,25.634h6.956Z" transform="translate(-750.786 -380.775)" fill="#fff"/>
        <path id="패스_38" data-name="패스 38" d="M822.69,431.437l-6.954-.018-29.5,25.634h6.956Z" transform="translate(-715.335 -406.097)" fill="#fff"/>
        <path id="패스_39" data-name="패스 39" d="M822.69,431.437l-6.954-.018-29.5,25.634h6.956Z" transform="translate(-679.884 -431.42)" fill="#fff"/>
      </g>
      <g id="그룹_36" data-name="그룹 36" transform="translate(87.121 0)">
        <path id="패스_40" data-name="패스 40" d="M822.69,431.437l-6.954-.018-29.5,25.634h6.956Z" transform="translate(-786.237 -355.453)" fill="#fff"/>
        <path id="패스_41" data-name="패스 41" d="M822.69,431.437l-6.954-.018-29.5,25.634h6.956Z" transform="translate(-750.786 -380.775)" fill="#fff"/>
        <path id="패스_42" data-name="패스 42" d="M822.69,431.437l-6.954-.018-29.5,25.634h6.956Z" transform="translate(-715.335 -406.097)" fill="#fff"/>
        <path id="패스_43" data-name="패스 43" d="M822.69,431.437l-6.954-.018-29.5,25.634h6.956Z" transform="translate(-679.884 -431.42)" fill="#fff"/>
      </g>
      <g id="그룹_37" data-name="그룹 37" transform="translate(129.4 0)">
        <path id="패스_44" data-name="패스 44" d="M822.69,431.437l-6.954-.018-29.5,25.634h6.956Z" transform="translate(-786.237 -355.453)" fill="#fff"/>
        <path id="패스_45" data-name="패스 45" d="M822.69,431.437l-6.954-.018-29.5,25.634h6.956Z" transform="translate(-750.786 -380.775)" fill="#fff"/>
        <path id="패스_46" data-name="패스 46" d="M822.69,431.437l-6.954-.018-29.5,25.634h6.956Z" transform="translate(-715.335 -406.097)" fill="#fff"/>
        <path id="패스_47" data-name="패스 47" d="M822.69,431.437l-6.954-.018-29.5,25.634h6.956Z" transform="translate(-679.884 -431.42)" fill="#fff"/>
      </g>
      <g id="그룹_38" data-name="그룹 38" transform="translate(172.961 0)">
        <path id="패스_48" data-name="패스 48" d="M822.69,431.437l-6.954-.018-29.5,25.634h6.956Z" transform="translate(-786.237 -355.453)" fill="#fff"/>
        <path id="패스_49" data-name="패스 49" d="M822.69,431.437l-6.954-.018-29.5,25.634h6.956Z" transform="translate(-750.786 -380.775)" fill="#fff"/>
        <path id="패스_50" data-name="패스 50" d="M822.69,431.437l-6.954-.018-29.5,25.634h6.956Z" transform="translate(-715.335 -406.097)" fill="#fff"/>
        <path id="패스_51" data-name="패스 51" d="M822.69,431.437l-6.954-.018-29.5,25.634h6.956Z" transform="translate(-679.884 -431.42)" fill="#fff"/>
      </g>
    </g>
  </g>
</svg>
